<svg width="40" height="40" viewBox="0 0 40 40" fill="none" xmlns="http://www.w3.org/2000/svg">
<path fill-rule="evenodd" clip-rule="evenodd" d="M12.2173 3.33398H27.7823C33.4506 3.33398 36.6507 6.54898 36.6673 12.2173V27.784C36.6673 33.4507 33.4506 36.6673 27.7823 36.6673H12.2173C6.54898 36.6673 3.33398 33.4507 3.33398 27.784V12.2173C3.33398 6.54898 6.54898 3.33398 12.2173 3.33398ZM20.0823 29.7673C20.8006 29.7673 21.399 29.234 21.4657 28.5173V11.534C21.5323 11.0173 21.284 10.499 20.834 10.2173C20.3657 9.93398 19.799 9.93398 19.3507 10.2173C18.899 10.499 18.6507 11.0173 18.699 11.534V28.5173C18.784 29.234 19.3823 29.7673 20.0823 29.7673ZM27.7507 29.7673C28.4507 29.7673 29.049 29.234 29.134 28.5173V23.0507C29.1823 22.5157 28.934 22.0173 28.4823 21.734C28.034 21.4507 27.4673 21.4507 27.0007 21.734C26.549 22.0173 26.3007 22.5157 26.3673 23.0507V28.5173C26.434 29.234 27.0323 29.7673 27.7507 29.7673ZM13.699 28.5173C13.6323 29.234 13.034 29.7673 12.3157 29.7673C11.599 29.7673 10.999 29.234 10.934 28.5173V17.0007C10.884 16.4823 11.1323 15.9673 11.584 15.684C12.0323 15.4007 12.6007 15.4007 13.0507 15.684C13.499 15.9673 13.7507 16.4823 13.699 17.0007V28.5173Z" fill="white"/>
</svg>
