<svg width="139" height="32" viewBox="0 0 139 32" fill="none" xmlns="http://www.w3.org/2000/svg">
<path d="M11.008 23.8238C9.49333 23.8238 8.06933 23.5251 6.736 22.9278C5.40267 22.3198 4.22933 21.4825 3.216 20.4158C2.21333 19.3491 1.424 18.1171 0.848 16.7198C0.282667 15.3118 0 13.8078 0 12.2078C0 10.5971 0.282667 9.09313 0.848 7.6958C1.424 6.2878 2.21333 5.0558 3.216 3.9998C4.22933 2.93313 5.40267 2.10113 6.736 1.5038C8.06933 0.895797 9.49333 0.591797 11.008 0.591797C12.8213 0.591797 14.4907 1.01313 16.016 1.8558C17.5413 2.6878 18.8053 3.80246 19.808 5.1998L16.32 7.0718C15.6907 6.29313 14.9067 5.66913 13.968 5.1998C13.04 4.73046 12.0533 4.4958 11.008 4.4958C10.0267 4.4958 9.104 4.69846 8.24 5.1038C7.376 5.49847 6.61867 6.05313 5.968 6.7678C5.31733 7.4718 4.81067 8.29313 4.448 9.2318C4.08533 10.1598 3.904 11.1518 3.904 12.2078C3.904 13.2745 4.08533 14.2718 4.448 15.1998C4.82133 16.1278 5.33333 16.9491 5.984 17.6638C6.63467 18.3678 7.38667 18.9225 8.24 19.3278C9.104 19.7225 10.0267 19.9198 11.008 19.9198C12.0747 19.9198 13.0667 19.6851 13.984 19.2158C14.912 18.7358 15.6907 18.1065 16.32 17.3278L19.808 19.2158C18.8053 20.6025 17.5413 21.7171 16.016 22.5598C14.4907 23.4025 12.8213 23.8238 11.008 23.8238Z" fill="black"/>
<path d="M29.0237 23.8238C27.5517 23.8238 26.2078 23.4451 24.9918 22.6878C23.7864 21.9305 22.8211 20.9171 22.0957 19.6478C21.3811 18.3678 21.0237 16.9545 21.0237 15.4078C21.0237 14.2345 21.2317 13.1411 21.6477 12.1278C22.0637 11.1038 22.6344 10.2078 23.3597 9.4398C24.0957 8.66113 24.9491 8.05313 25.9198 7.6158C26.8904 7.17847 27.9251 6.9598 29.0237 6.9598C30.4957 6.9598 31.8344 7.33847 33.0398 8.0958C34.2558 8.85313 35.2211 9.8718 35.9358 11.1518C36.6611 12.4318 37.0238 13.8505 37.0238 15.4078C37.0238 16.5705 36.8158 17.6585 36.3997 18.6718C35.9838 19.6851 35.4078 20.5811 34.6718 21.3598C33.9464 22.1278 33.0984 22.7305 32.1278 23.1678C31.1678 23.6051 30.1331 23.8238 29.0237 23.8238ZM29.0237 19.9198C29.8024 19.9198 30.5011 19.7118 31.1197 19.2958C31.7384 18.8798 32.2238 18.3305 32.5758 17.6478C32.9384 16.9651 33.1198 16.2185 33.1198 15.4078C33.1198 14.5758 32.9331 13.8185 32.5598 13.1358C32.1971 12.4425 31.7011 11.8931 31.0717 11.4878C30.4531 11.0718 29.7704 10.8638 29.0237 10.8638C28.2557 10.8638 27.5624 11.0718 26.9438 11.4878C26.3251 11.9038 25.8344 12.4585 25.4718 13.1518C25.1091 13.8451 24.9277 14.5971 24.9277 15.4078C24.9277 16.2505 25.1144 17.0131 25.4877 17.6958C25.8611 18.3785 26.3571 18.9225 26.9757 19.3278C27.6051 19.7225 28.2877 19.9198 29.0237 19.9198Z" fill="black"/>
<path d="M39.515 23.4078V7.4078H43.419V8.8318C43.963 8.2558 44.6137 7.80246 45.371 7.4718C46.1283 7.13047 46.9443 6.9598 47.819 6.9598C48.9283 6.9598 49.947 7.22113 50.875 7.7438C51.8137 8.26646 52.5603 8.96513 53.115 9.8398C53.6803 8.96513 54.427 8.26646 55.355 7.7438C56.283 7.22113 57.3017 6.9598 58.411 6.9598C59.5843 6.9598 60.6457 7.2478 61.595 7.8238C62.555 8.38913 63.3177 9.1518 63.883 10.1118C64.459 11.0611 64.747 12.1225 64.747 13.2958V23.4078H60.843V14.3358C60.843 13.7171 60.6883 13.1518 60.379 12.6398C60.0803 12.1171 59.675 11.7011 59.163 11.3918C58.6617 11.0718 58.0963 10.9118 57.467 10.9118C56.8377 10.9118 56.267 11.0665 55.755 11.3758C55.2537 11.6745 54.8483 12.0798 54.539 12.5918C54.2297 13.1038 54.075 13.6851 54.075 14.3358V23.4078H50.171V14.3358C50.171 13.6851 50.0217 13.1038 49.723 12.5918C49.4243 12.0798 49.019 11.6745 48.507 11.3758C47.995 11.0665 47.4243 10.9118 46.795 10.9118C46.1763 10.9118 45.611 11.0718 45.099 11.3918C44.587 11.7011 44.1763 12.1171 43.867 12.6398C43.5683 13.1518 43.419 13.7171 43.419 14.3358V23.4078H39.515Z" fill="black"/>
<path d="M71.8565 31.4078H67.9525V7.4078H71.8565V9.4398C72.3792 8.71446 73.0192 8.1278 73.7765 7.6798C74.5445 7.22113 75.4405 6.9918 76.4645 6.9918C77.6378 6.9918 78.7312 7.21046 79.7445 7.6478C80.7578 8.08513 81.6485 8.69313 82.4165 9.4718C83.1952 10.2398 83.7978 11.1305 84.2245 12.1438C84.6618 13.1571 84.8805 14.2451 84.8805 15.4078C84.8805 16.5705 84.6618 17.6638 84.2245 18.6878C83.7978 19.7118 83.1952 20.6131 82.4165 21.3918C81.6485 22.1598 80.7578 22.7625 79.7445 23.1998C78.7312 23.6371 77.6378 23.8558 76.4645 23.8558C75.4405 23.8558 74.5445 23.6318 73.7765 23.1838C73.0192 22.7251 72.3792 22.1331 71.8565 21.4078V31.4078ZM76.4165 10.7518C75.6058 10.7518 74.8805 10.9651 74.2405 11.3918C73.6005 11.8078 73.0992 12.3678 72.7365 13.0718C72.3738 13.7758 72.1925 14.5545 72.1925 15.4078C72.1925 16.2611 72.3738 17.0451 72.7365 17.7598C73.0992 18.4638 73.6005 19.0291 74.2405 19.4558C74.8805 19.8718 75.6058 20.0798 76.4165 20.0798C77.2378 20.0798 77.9898 19.8718 78.6725 19.4558C79.3552 19.0398 79.8992 18.4798 80.3045 17.7758C80.7098 17.0611 80.9125 16.2718 80.9125 15.4078C80.9125 14.5545 80.7098 13.7758 80.3045 13.0718C79.8992 12.3678 79.3552 11.8078 78.6725 11.3918C78.0005 10.9651 77.2485 10.7518 76.4165 10.7518Z" fill="black"/>
<path d="M99.5165 7.4078H103.421V23.4078H99.5165L99.3405 21.4238C98.9032 22.1385 98.3218 22.7198 97.5965 23.1678C96.8818 23.6051 96.0338 23.8238 95.0525 23.8238C93.8685 23.8238 92.7592 23.5998 91.7245 23.1518C90.6898 22.7038 89.7778 22.0851 88.9885 21.2958C88.2098 20.5065 87.5965 19.5945 87.1485 18.5598C86.7112 17.5251 86.4925 16.4158 86.4925 15.2318C86.4925 14.0905 86.7005 13.0185 87.1165 12.0158C87.5432 11.0131 88.1352 10.1331 88.8925 9.3758C89.6498 8.61846 90.5245 8.02646 91.5165 7.5998C92.5085 7.17313 93.5752 6.9598 94.7165 6.9598C95.7725 6.9598 96.7165 7.19447 97.5485 7.6638C98.3912 8.13313 99.1058 8.73047 99.6925 9.4558L99.5165 7.4078ZM94.9565 20.0638C95.7885 20.0638 96.5245 19.8558 97.1645 19.4398C97.8045 19.0238 98.3058 18.4638 98.6685 17.7598C99.0312 17.0451 99.2125 16.2611 99.2125 15.4078C99.2125 14.5438 99.0312 13.7598 98.6685 13.0558C98.3058 12.3411 97.7992 11.7758 97.1485 11.3598C96.5085 10.9438 95.7778 10.7358 94.9565 10.7358C94.1352 10.7358 93.3832 10.9491 92.7005 11.3758C92.0285 11.7918 91.4898 12.3518 91.0845 13.0558C90.6898 13.7598 90.4925 14.5438 90.4925 15.4078C90.4925 16.2718 90.6952 17.0558 91.1005 17.7598C91.5058 18.4638 92.0445 19.0238 92.7165 19.4398C93.3992 19.8558 94.1458 20.0638 94.9565 20.0638Z" fill="black"/>
<path d="M121.265 13.2958V23.4078H117.361V14.3198C117.361 13.6905 117.206 13.1198 116.897 12.6078C116.587 12.0851 116.171 11.6745 115.649 11.3758C115.137 11.0665 114.566 10.9118 113.937 10.9118C113.307 10.9118 112.731 11.0665 112.209 11.3758C111.697 11.6745 111.286 12.0851 110.977 12.6078C110.678 13.1198 110.529 13.6905 110.529 14.3198V23.4078H106.625L106.609 7.4078H110.513L110.529 8.8318C111.073 8.2558 111.723 7.80246 112.481 7.4718C113.238 7.13047 114.054 6.9598 114.929 6.9598C116.091 6.9598 117.153 7.2478 118.113 7.8238C119.073 8.38913 119.835 9.1518 120.401 10.1118C120.977 11.0611 121.265 12.1225 121.265 13.2958Z" fill="black"/>
<path d="M134.553 7.4078H138.698L129.945 31.4078H125.801L128.697 23.4078L122.938 7.4078H127.21L130.65 18.0638L134.553 7.4078Z" fill="black"/>
</svg>
