<svg width="43" height="24" viewBox="0 0 43 24" fill="none" xmlns="http://www.w3.org/2000/svg">
<g clip-path="url(#clip0_36_132)">
<path d="M31 23.25C24.775 23.25 19.75 18.225 19.75 12L42.25 12C42.25 18.225 37.225 23.25 31 23.25Z" fill="#F9F9F9"/>
<path d="M31 0.749999C37.225 0.75 42.25 5.775 42.25 12L19.75 12C19.75 5.775 24.775 0.749998 31 0.749999Z" fill="#ED4C5C"/>
</g>
<g clip-path="url(#clip1_36_132)">
<path d="M8.2502 22.6125V17.4375L4.3877 20.2875C5.4752 21.3 6.7877 22.0875 8.2502 22.6125Z" fill="#2A5F9E"/>
<path d="M15.75 22.6129C17.2125 22.0879 18.525 21.3004 19.6125 20.2879L15.75 17.4004V22.6129Z" fill="#2A5F9E"/>
<path d="M1.3877 15.75C1.5002 16.125 1.6502 16.4625 1.8377 16.8375L3.3002 15.75H1.3877Z" fill="#2A5F9E"/>
<path d="M20.7002 15.75L22.1627 16.8375C22.3127 16.5 22.4627 16.125 22.6127 15.75H20.7002Z" fill="#2A5F9E"/>
<path d="M8.81211 14.25H0.974609C1.08711 14.775 1.23711 15.2625 1.38711 15.75H3.29961L1.83711 16.8375C2.13711 17.475 2.47461 18.0375 2.88711 18.6L6.74961 15.75H8.24961V16.5L3.86211 19.725L4.38711 20.25L8.24961 17.4375V22.6125C8.73711 22.8 9.22461 22.9125 9.74961 23.025V14.25H8.81211Z" fill="white"/>
<path d="M23.025 14.25H14.25V23.025C14.775 22.9125 15.2625 22.7625 15.75 22.6125V17.4375L19.6125 20.25C20.1375 19.7625 20.5875 19.2375 21.0375 18.675L17.025 15.75H19.575L21.8625 17.4375C21.975 17.25 22.0875 17.025 22.1625 16.8375L20.7 15.75H22.6125C22.7625 15.2625 22.9125 14.775 23.025 14.25Z" fill="white"/>
<path d="M2.8877 18.5996C3.1877 19.0121 3.4877 19.3871 3.8252 19.7621L8.2502 16.5371V15.7871H6.7502L2.8877 18.5996Z" fill="#ED4C5C"/>
<path d="M17.0625 15.75L21.075 18.675C21.225 18.4875 21.3375 18.3 21.4875 18.1125C21.525 18.075 21.525 18.0375 21.5625 18.0375C21.675 17.85 21.825 17.625 21.9375 17.4375L19.575 15.75H17.0625Z" fill="#ED4C5C"/>
<path d="M15.75 1.38672V6.56172L19.6125 3.71172C18.525 2.69922 17.2125 1.91172 15.75 1.38672Z" fill="#2A5F9E"/>
<path d="M8.2502 1.38672C6.7877 1.91172 5.4752 2.69922 4.3877 3.71172L8.2502 6.59922V1.38672Z" fill="#2A5F9E"/>
<path d="M22.6127 8.24961C22.5002 7.87461 22.3502 7.53711 22.1627 7.16211L20.7002 8.24961H22.6127Z" fill="#2A5F9E"/>
<path d="M3.3002 8.24961L1.8377 7.16211C1.6877 7.53711 1.5377 7.87461 1.3877 8.24961H3.3002Z" fill="#2A5F9E"/>
<path d="M15.1875 9.74961H22.9875C22.875 9.22461 22.725 8.73711 22.575 8.24961H20.6625L22.125 7.16211C21.825 6.52461 21.4875 5.96211 21.075 5.39961L17.25 8.24961H15.75V7.49961L20.1375 4.27461L19.6125 3.74961L15.75 6.56211V1.38711C15.2625 1.19961 14.775 1.08711 14.25 0.974609V9.74961H15.1875Z" fill="white"/>
<path d="M0.974609 9.74961H9.74961V0.974609C9.22461 1.08711 8.73711 1.23711 8.24961 1.38711V6.56211L4.38711 3.74961C3.86211 4.23711 3.41211 4.76211 2.96211 5.32461L6.97461 8.24961H4.42461L2.13711 6.56211C2.02461 6.74961 1.91211 6.97461 1.83711 7.16211L3.29961 8.24961H1.38711C1.23711 8.73711 1.08711 9.22461 0.974609 9.74961Z" fill="white"/>
<path d="M21.1125 5.40078C20.8125 4.98828 20.5125 4.61328 20.175 4.23828L15.75 7.46328V8.21328H17.25L21.1125 5.40078Z" fill="#ED4C5C"/>
<path d="M6.93711 8.24922L2.96211 5.32422C2.81211 5.51172 2.69961 5.69922 2.54961 5.88672C2.51211 5.92422 2.51211 5.96172 2.47461 5.96172C2.36211 6.14922 2.21211 6.37422 2.09961 6.56172L4.38711 8.24922H6.93711Z" fill="#ED4C5C"/>
<path d="M23.025 9.75H14.25V0.975C13.5375 0.825 12.7875 0.75 12 0.75C11.2125 0.75 10.4625 0.825 9.75 0.975V9.75H0.975C0.825 10.4625 0.75 11.2125 0.75 12C0.75 12.7875 0.825 13.5375 0.975 14.25H9.75V23.025C10.4625 23.175 11.2125 23.25 12 23.25C12.7875 23.25 13.5375 23.175 14.25 23.025V14.25H23.025C23.175 13.5375 23.25 12.7875 23.25 12C23.25 11.2125 23.175 10.4625 23.025 9.75Z" fill="#ED4C5C"/>
</g>
<defs>
<clipPath id="clip0_36_132">
<rect width="24" height="24" fill="white" transform="translate(43 24) rotate(-180)"/>
</clipPath>
<clipPath id="clip1_36_132">
<rect width="24" height="24" fill="white"/>
</clipPath>
</defs>
</svg>
