<?xml version="1.0" encoding="utf-8"?>
<!-- Generator: Adobe Illustrator 26.3.1, SVG Export Plug-In . SVG Version: 6.00 Build 0)  -->
<svg version="1.1" id="Warstwa_1" xmlns="http://www.w3.org/2000/svg" xmlns:xlink="http://www.w3.org/1999/xlink" x="0px" y="0px"
	 viewBox="0 0 48 48" style="enable-background:new 0 0 48 48;" xml:space="preserve">
<style type="text/css">
	.st0{fill:#6245D5;}
	.st1{fill:#FFFFFF;}
	.st2{fill:#333E51;}
	.st3{fill:#2073B5;}
</style>
<path class="st0" d="M32.4,4H15.6C8.3,4,4,8.3,4,15.6v16.7C4,39.7,8.3,44,15.6,44h16.7C39.6,44,44,39.7,44,32.4V15.6
	C44,8.3,39.7,4,32.4,4z"/>
<g>
	<path class="st1" d="M29.5,16.2l3,0.2c0.3,0,0.6-0.1,0.8-0.2l0.1,0c0.2-0.2,0.4-0.5,0.4-0.8l0.1-3c0-0.4-0.3-0.7-0.7-0.7h0
		c-0.2,0-0.3,0-0.5,0.2c-0.1,0.1-0.2,0.3-0.2,0.5l-0.1,1.8L32.4,14c-2.3-2.2-5.3-3.4-8.5-3.4c-3.8,0-7.4,1.7-9.7,4.8
		c-0.2,0.3-0.2,0.7,0.1,1c0.1,0.1,0.3,0.2,0.5,0.1c0.2,0,0.3-0.1,0.5-0.3c2.1-2.7,5.2-4.2,8.6-4.2c2.8,0,5.4,1,7.4,2.9l0.1,0.1
		l-1.8-0.1c0,0,0,0,0,0c-0.4,0-0.7,0.3-0.7,0.6c0,0.2,0,0.4,0.2,0.5C29.2,16.1,29.4,16.2,29.5,16.2z"/>
	<g>
		<g>
			<path class="st1" d="M10.9,27.9c0.2,0.4,0.8,1.2,0.8,1.3c0.1,0.2,0.1,0.5,0.2,0.8v1.2c0,0.2,0,0.3,0,0.5c0,0.4,0.3,0.7,0.7,0.7
				c0.2,0,0.4,0,0.6,0.1l0.2,0l0.1,0.1c0.3,0.4,0.8,0.7,1.4,0.7c0.3,0,0.6-0.1,0.8-0.2c0.2-0.1,0.4-0.3,0.5-0.5l0.1-0.2l0.2,0
				c0.2,0,0.4,0,0.5,0c0.5-0.1,0.8-0.4,0.8-0.9c0-0.1,0-0.2,0-0.3l0,0c0-0.1,0-0.2,0-0.2c0-0.1,0-0.2,0-0.3l0-0.2c0-0.2,0-0.5,0-0.5
				c0-0.3,0.1-0.5,0.2-0.7c0.1-0.1,0.9-1.4,1-1.5c1.5-2.4,0.4-4.8,0.3-4.9l0,0c-1.3-2.4-3.4-2.6-4.2-2.6l0,0l-0.2,0l-0.1,0l0,0
				c0,0,0,0,0,0c-0.7,0-2.9,0.2-4.2,2.6c0,0.1-1.1,2.5,0.3,4.9L10.9,27.9z M11.3,23.2c0.7-1.3,2-2.1,3.5-2.1c1.5,0,2.8,0.8,3.5,2
				c0,0,0.9,2.1-0.3,4l0,0L17.5,28c-0.2,0.3-0.4,0.6-0.4,0.6c0,0.1-0.1,0.1-0.1,0.2c-0.1,0.3-0.5,0.5-0.8,0.5h-2.8
				c-0.3,0-0.6-0.2-0.7-0.5c0-0.1-0.1-0.2-0.1-0.2c-0.1-0.1-0.9-1.4-0.9-1.4C10.5,25.4,11.2,23.4,11.3,23.2z"/>
			<path class="st1" d="M13.7,27.7c0,0.2,0.2,0.3,0.3,0.3c0,0,0.1,0,0.1,0c0.1,0,0.1-0.1,0.2-0.1c0-0.1,0.1-0.1,0-0.3
				c-0.1-0.4-0.2-0.8-0.3-1.2l-0.1-0.4c-0.1-0.2-0.1-0.4-0.2-0.6L13.5,25l0.1,0c0.3-0.1,0.5-0.2,0.8-0.2l0.1,0v0.1
				c0,0.1,0,0.1,0,0.2l0,0c0,0.1,0,0.3,0,0.4c0,0.2,0.1,0.3,0.3,0.3c0.2,0,0.3-0.1,0.3-0.3c0,0,0-0.1,0-0.1c0,0,0,0,0-0.1l0-0.5
				l0.1,0c0.3,0,0.6,0.1,0.8,0.2l0.1,0l0,0.1c0,0,0,0,0,0l-0.2,0.8c-0.2,0.6-0.3,1.1-0.5,1.7c0,0.1,0,0.2,0,0.3
				c0.1,0.1,0.2,0.1,0.3,0.1c0.1,0,0.2-0.1,0.3-0.2c0-0.2,0.1-0.3,0.1-0.5l0,0c0-0.1,0.1-0.2,0.1-0.3c0.3-1,0.6-1.9,0.8-2.9
				c0.1-0.2,0-0.3-0.1-0.4c-0.1,0-0.1-0.1-0.2-0.1c-0.1,0-0.3,0.1-0.3,0.2c0,0.1-0.1,0.3-0.1,0.4l0,0.2l-0.1,0
				c-0.3-0.1-0.7-0.2-1-0.2l0,0l0,0c0,0,0,0,0,0l0,0l0,0c0-0.1,0-0.1,0-0.2c0-0.1,0-0.1,0-0.2c0-0.2-0.1-0.3-0.3-0.3
				c-0.2,0-0.3,0.1-0.3,0.3c0,0.1,0,0.2,0,0.3c0,0,0,0,0,0v0.1l-0.1,0c0,0,0,0,0,0c-0.2,0-0.3,0-0.5,0.1c-0.2,0-0.3,0.1-0.5,0.1
				l-0.2,0l0-0.1c0-0.1-0.1-0.2-0.1-0.4c0-0.2-0.2-0.3-0.3-0.3c0,0,0,0-0.1,0c-0.1,0-0.2,0.1-0.2,0.1c0,0.1,0,0.2,0,0.3
				C12.9,25.2,13.3,26.4,13.7,27.7z"/>
		</g>
		<g>
			<path class="st1" d="M31.5,20.2c-3.6,0-6.5,2.9-6.5,6.5c0,3.6,2.9,6.5,6.5,6.5c3.6,0,6.5-2.9,6.5-6.5
				C38,23.1,35.1,20.2,31.5,20.2z M33.8,28.7c-0.1,0.7-0.5,1.2-1.3,1.5c-0.1,0-0.2,0.1-0.4,0.1l-0.2,0v0.5h-0.7v-0.5l-0.1,0
				c-1.4-0.3-2-1-1.9-2.1h1.3l0,0.1c0,0,0,0.1,0,0.1c0.1,0.5,0.4,0.8,0.9,0.9c0.1,0,0.2,0,0.3,0c0.4,0,0.7-0.2,0.8-0.5
				c0.1-0.4,0-0.8-0.3-1c-0.2-0.1-0.3-0.2-0.5-0.3l-0.1,0c-0.1,0-0.2-0.1-0.2-0.1c-0.1-0.1-0.3-0.1-0.4-0.2
				c-0.3-0.1-0.6-0.3-0.9-0.5c-0.5-0.4-0.8-1-0.7-1.6c0.1-0.7,0.4-1.2,1-1.5c0.2-0.1,0.4-0.1,0.6-0.2c0.1,0,0.1,0,0.2-0.1l0.1,0
				v-0.6H32v0.6l0.1,0c0.7,0.1,1.2,0.4,1.5,0.9c0.2,0.3,0.3,0.8,0.2,1.1h-1.3c0,0,0-0.1,0-0.1l0,0c0-0.1,0-0.2-0.1-0.3
				c-0.1-0.4-0.4-0.6-0.8-0.6c-0.4,0-0.7,0.2-0.8,0.5c-0.1,0.4,0,0.8,0.3,1c0.2,0.1,0.4,0.2,0.6,0.3c0.1,0,0.2,0.1,0.2,0.1
				c0.1,0.1,0.2,0.1,0.4,0.2c0.2,0.1,0.5,0.2,0.7,0.4C33.7,27.2,33.9,27.8,33.8,28.7z"/>
		</g>
	</g>
</g>
<g>
	<g>
		<path class="st2" d="M188.4,31.2c0-0.2,0-0.4,0-0.5c-0.2-0.9-1-1.5-2-1.5c-3.8,0-6.7-0.1-10.3-0.1l-1.9,0l-1.9,0
			c-3.5-0.1-6.4-0.2-10.3-0.3c-1,0-1.8,0.5-2,1.4c-0.1,0.2-0.1,0.4-0.1,0.5c-0.1,4-0.2,8-0.3,11.9c0,1.2,0.8,2,1.9,2.1l13.2,0.3l0,0
			l0.2,0l0.3,0l0,0l11.1,0.1c1.2,0,2-0.8,2-2C188.3,39.2,188.3,35.2,188.4,31.2z M181.1,42.3c-2.8,0-5,0-7-0.1l-0.1,0l-0.1,0
			c-2,0-4.2-0.1-7-0.2c-0.3-1.5-1.3-2.5-2.7-2.9c0-1.4,0.1-3,0.1-4.8c1.4-0.2,2.3-1.1,2.7-2.4l0-0.1c0-0.1,0.1-0.1,0.1-0.2
			c2.6,0.1,4.8,0.1,7.1,0.2c2.3,0,4.5,0,7.1,0.1c0,0.1,0,0.1,0.1,0.2l0,0.1c0.4,1.4,1.3,2.2,2.7,2.5c0,1.8,0,3.3,0,4.8
			C182.4,39.9,181.5,40.8,181.1,42.3z"/>
	</g>
	<g>
		<path class="st2" d="M186.2,27.5c-0.1-1-0.7-1.6-1.7-1.8c-3.8-0.7-6.6-1.2-10.1-1.9l-1.9-0.4l-1.9-0.4c-3.5-0.7-6.3-1.3-10.1-2
			c-1-0.2-1.8,0.2-2.2,1.1c-0.1,0.2-0.1,0.4-0.2,0.5c-0.8,3.9-1.6,7.8-2.3,11.6c-0.2,1.2,0.4,2.1,1.6,2.4l0.8,0.2
			c0-2,0.1-4.1,0.2-6.1c0-0.2,0-0.6,0.1-0.9c0.4-1.5,1.7-2.5,3.3-2.6c0-0.1,0-0.1,0-0.2c1.4,0,2.5-0.7,3.1-1.9l0.1-0.1
			c0-0.1,0.1-0.1,0.1-0.2c2.5,0.5,4.7,0.9,6.9,1.4c2.2,0.4,4.4,0.8,6.9,1.3c0,0,0,0,0,0.1C181.2,27.6,183.5,27.6,186.2,27.5
			C186.2,27.6,186.2,27.6,186.2,27.5z"/>
	</g>
	<g>
		<path class="st2" d="M179.2,21.3l-1.6-1.1l-1.6-1.1c-2.9-2.1-5.2-3.7-8.4-6c-0.8-0.6-1.8-0.6-2.5,0c-0.1,0.1-0.3,0.3-0.4,0.4
			c-1.4,2-2.8,4-4.2,5.9c0,0,0.1,0,0.1,0l0.1,0c1.7,0.3,3.1,0.6,4.6,0.9c0.3-0.5,0.7-0.9,1-1.4c1.3,0.6,2.5,0.4,3.6-0.5l0.1-0.1
			c0.1,0,0.1-0.1,0.2-0.1c2.1,1.5,3.9,2.8,5.8,4.1c0,0,0.1,0.1,0.1,0.1l0.1,0c2.2,0.4,4.2,0.8,6.6,1.2
			C181.6,23,180.5,22.2,179.2,21.3z"/>
	</g>
	<path class="st3" d="M177,37c0,1.7-1.4,3-3.1,3c-1.7,0-3-1.4-3-3.1c0-1.7,1.4-3,3.1-3C175.7,34,177.1,35.3,177,37z"/>
</g>
</svg>
