<?xml version="1.0" encoding="utf-8"?>
<!-- Generator: Adobe Illustrator 26.3.1, SVG Export Plug-In . SVG Version: 6.00 Build 0)  -->
<svg version="1.1" id="Warstwa_1" xmlns="http://www.w3.org/2000/svg" xmlns:xlink="http://www.w3.org/1999/xlink" x="0px" y="0px"
	 viewBox="0 0 48 48" style="enable-background:new 0 0 48 48;" xml:space="preserve">
<style type="text/css">
	.st0{fill:#6245D5;}
	.st1{fill:#FFFFFF;}
</style>
<path class="st0" d="M32.7,4H15.9C8.6,4,4.3,8.3,4.3,15.6v16.7C4.3,39.7,8.6,44,15.9,44h16.7c7.3,0,11.6-4.3,11.6-11.6V15.6
	C44.3,8.3,39.9,4,32.7,4z"/>
<g>
	<g>
		<path class="st1" d="M37.8,23.6c0-0.1,0-0.3,0-0.4c-0.2-0.8-0.8-1.2-1.6-1.2c-3.2,0-5.6,0-8.5-0.1l-1.6,0l-1.6,0
			c-2.9-0.1-5.3-0.1-8.5-0.2c-0.9,0-1.5,0.4-1.7,1.2c0,0.2-0.1,0.3-0.1,0.4c-0.1,3.3-0.2,6.6-0.2,9.8c0,1,0.6,1.7,1.6,1.7L26.4,35
			l0,0l0.2,0l0.2,0l0,0l9.2,0.1c1,0,1.7-0.7,1.7-1.6C37.7,30.2,37.8,26.9,37.8,23.6z M31.7,32.8c-2.3,0-4.2,0-5.8-0.1l-0.1,0l-0.1,0
			c-1.7,0-3.5-0.1-5.8-0.1c-0.3-1.2-1-2-2.2-2.4c0-1.2,0.1-2.5,0.1-3.9c1.2-0.2,1.9-0.9,2.3-2l0-0.1c0-0.1,0-0.1,0.1-0.2
			c2.1,0.1,4,0.1,5.8,0.1c1.9,0,3.7,0,5.8,0c0,0.1,0,0.1,0.1,0.2l0,0.1c0.3,1.1,1.1,1.8,2.2,2.1c0,1.5,0,2.8,0,3.9
			C32.9,30.8,32.1,31.6,31.7,32.8z"/>
	</g>
	<g>
		<path class="st1" d="M36,20.6c0-0.8-0.6-1.3-1.4-1.5c-3.1-0.6-5.5-1-8.4-1.5l-1.6-0.3l-1.6-0.3c-2.9-0.6-5.2-1-8.3-1.7
			c-0.8-0.2-1.5,0.2-1.9,0.9c-0.1,0.1-0.1,0.3-0.1,0.4c-0.7,3.2-1.3,6.5-1.9,9.6c-0.2,1,0.3,1.8,1.3,2l0.6,0.1
			c0-1.7,0.1-3.4,0.1-5.1c0-0.2,0-0.5,0.1-0.8c0.3-1.3,1.4-2.1,2.8-2.1c0-0.1,0-0.1,0-0.2c1.2,0,2-0.5,2.6-1.6l0-0.1
			c0-0.1,0.1-0.1,0.1-0.1c2.1,0.4,3.9,0.8,5.7,1.2c1.8,0.3,3.7,0.7,5.8,1.1c0,0,0,0,0,0C31.9,20.6,33.7,20.6,36,20.6
			C36,20.6,36,20.6,36,20.6z"/>
	</g>
	<g>
		<path class="st1" d="M30.2,15.4l-1.3-0.9l-1.3-0.9c-2.4-1.7-4.3-3.1-6.9-4.9c-0.7-0.5-1.5-0.5-2.1,0c-0.1,0.1-0.2,0.2-0.3,0.3
			c-1.2,1.6-2.3,3.3-3.5,4.9c0,0,0.1,0,0.1,0l0.1,0c1.4,0.3,2.6,0.5,3.8,0.8c0.3-0.4,0.6-0.8,0.8-1.2c1.1,0.5,2.1,0.3,3-0.4l0.1,0
			c0.1,0,0.1-0.1,0.1-0.1c1.7,1.2,3.2,2.3,4.8,3.4c0,0,0.1,0.1,0.1,0.1l0.1,0c1.8,0.3,3.5,0.6,5.4,1C32.2,16.8,31.2,16.2,30.2,15.4z
			"/>
	</g>
	<path class="st1" d="M28.4,28.4c0,1.4-1.1,2.5-2.5,2.5c-1.4,0-2.5-1.1-2.5-2.5c0-1.4,1.1-2.5,2.5-2.5C27.3,25.9,28.4,27,28.4,28.4z
		"/>
</g>
</svg>
