<svg width="80" height="80" viewBox="0 0 80 80" fill="none" xmlns="http://www.w3.org/2000/svg">
<path opacity="0.4" d="M73.3332 40.0154C73.3332 58.3785 58.3718 73.3327 39.9998 73.3327C21.6279 73.3327 6.6665 58.3785 6.6665 40.0154C6.6665 21.6202 21.6279 6.66602 39.9998 6.66602C58.3718 6.66602 73.3332 21.6202 73.3332 40.0154" fill="#192252"/>
<path d="M53.3333 40.0155C53.3333 40.858 53.0682 41.7037 52.5379 42.3809C52.4384 42.5137 51.9744 43.0613 51.6098 43.4177L51.411 43.6121C48.6269 46.5639 41.6998 51.003 38.1866 52.4254C38.1866 52.4578 36.0985 53.3035 35.1042 53.3327H34.9716C33.447 53.3327 32.0218 52.4935 31.2926 51.1326C30.8949 50.3841 30.5303 48.2132 30.4972 48.184C30.1989 46.2367 30 43.2557 30 39.9831C30 36.5518 30.1989 33.438 30.5634 31.5263C30.5634 31.4939 30.928 29.7442 31.16 29.161C31.5246 28.3217 32.1875 27.6057 33.0161 27.152C33.679 26.8313 34.375 26.666 35.1042 26.666C35.8665 26.7017 37.2917 27.1844 37.8551 27.4113C41.5672 28.8369 48.66 33.5028 51.3778 36.3541C51.8419 36.8078 52.339 37.3618 52.4716 37.4882C53.035 38.201 53.3333 39.0759 53.3333 40.0155" fill="#192252"/>
</svg>
